<?xml version="1.0" standalone="no"?>
<!DOCTYPE svg PUBLIC "-//W3C//DTD SVG 20010904//EN"
 "http://www.w3.org/TR/2001/REC-SVG-20010904/DTD/svg10.dtd">
<svg version="1.0" xmlns="http://www.w3.org/2000/svg"
 width="118.000000pt" height="107.000000pt" viewBox="0 0 118.000000 107.000000"
 preserveAspectRatio="xMidYMid meet">

<g transform="translate(0.000000,107.000000) scale(0.100000,-0.100000)"
fill="#000000" stroke="none">
<path d="M186 823 c-5 -31 0 -50 28 -103 33 -64 58 -91 72 -77 17 16 16 114 0
146 -41 78 -89 95 -100 34z"/>
<path d="M320 800 c0 -13 7 -20 20 -20 24 0 24 0 0 -78 -11 -35 -20 -75 -20
-88 0 -22 4 -24 56 -24 52 0 55 1 52 23 -2 14 -11 23 -25 25 l-21 3 24 71 c35
105 35 108 -31 108 -48 0 -55 -2 -55 -20z"/>
<path d="M444 708 l1 -113 53 -3 c51 -3 53 -2 50 20 -2 15 -11 24 -25 26 -29
4 -31 42 -3 49 11 3 20 13 20 23 0 10 -9 20 -20 23 -11 3 -20 13 -20 22 0 9 9
19 20 22 11 3 20 14 20 24 0 16 -8 19 -49 19 l-49 0 2 -112z"/>
<path d="M570 705 l0 -115 30 0 c30 0 30 0 30 56 0 34 4 53 10 49 6 -3 10 -28
10 -56 0 -46 2 -49 25 -49 24 0 25 3 25 54 0 34 -5 57 -12 60 -10 5 -10 7 0
12 15 7 16 76 0 92 -7 7 -36 12 -65 12 l-53 0 0 -115z m80 56 c0 -11 -4 -23
-10 -26 -6 -4 -10 5 -10 19 0 14 5 26 10 26 6 0 10 -9 10 -19z"/>
<path d="M732 726 c-17 -137 -17 -136 18 -136 23 0 30 4 30 20 0 11 4 20 9 20
5 0 11 -9 14 -20 4 -14 14 -20 34 -20 l29 0 -17 113 c-10 61 -18 113 -18 115
-1 1 -21 2 -44 2 l-44 0 -11 -94z m68 -26 c0 -16 -4 -30 -10 -30 -5 0 -10 14
-10 30 0 17 5 30 10 30 6 0 10 -13 10 -30z"/>
<path d="M977 739 c-31 -25 -77 -93 -77 -113 0 -3 18 -11 40 -17 37 -11 42
-10 66 12 32 29 54 78 54 119 0 25 -4 30 -23 30 -12 0 -39 -14 -60 -31z"/>
<path d="M135 740 c3 -5 8 -10 11 -10 2 0 4 5 4 10 0 6 -5 10 -11 10 -5 0 -7
-4 -4 -10z"/>
<path d="M749 541 c-20 -16 -24 -29 -27 -92 -4 -97 9 -123 65 -127 63 -5 73
12 73 118 0 80 -2 90 -22 104 -30 21 -61 20 -89 -3z m51 -107 c0 -54 -4 -83
-10 -79 -11 7 -14 148 -3 158 12 13 13 7 13 -79z"/>
<path d="M320 435 l0 -115 51 0 c43 0 50 3 45 16 -3 9 -6 20 -6 25 0 5 -7 9
-15 9 -12 0 -15 17 -15 90 l0 90 -30 0 -30 0 0 -115z"/>
<path d="M450 435 l0 -115 30 0 30 0 0 115 0 115 -30 0 -30 0 0 -115z"/>
<path d="M558 518 c9 -42 9 -91 -1 -150 l-8 -48 30 0 c28 0 31 3 31 30 0 38
18 40 22 3 2 -22 9 -29 31 -31 32 -4 31 -6 12 69 -12 44 -13 69 -5 101 13 59
13 58 -15 58 -18 0 -25 -5 -25 -19 0 -11 -4 -23 -10 -26 -6 -4 -10 5 -10 19 0
22 -5 26 -30 26 -28 0 -29 -1 -22 -32z"/>
</g>
</svg>
